<?xml version="1.0"?>
<svg xmlns="http://www.w3.org/2000/svg" xmlns:xlink="http://www.w3.org/1999/xlink" xmlns:svgjs="http://svgjs.com/svgjs" version="1.1" width="512" height="512" x="0" y="0" viewBox="0 0 512 512" style="enable-background:new 0 0 512 512" xml:space="preserve" class=""><g><g xmlns="http://www.w3.org/2000/svg"><path d="m256 21.995c-100.978 0-187.677 61.095-225.178 148.332s-33.819 119.923 13.181 198.923 98.5 114.124 129 124.312 68.324 17.989 68.324 17.989c4.856.287 9.745.45 14.673.45 7.811 0 15.531-.382 23.155-1.097l93.473-28.392c76.457-41.464 128.374-122.425 128.374-215.514.001-135.312-109.691-245.003-245.002-245.003z" fill="#1e1e1d" data-original="#ffc839" style="" class=""/><path d="m31.818 327.678c-18.436-34.557 42.109-83.548 32.851-116.261-5.452-19.264-20.912-32.779-33.847-41.09-12.751 29.661-19.824 62.338-19.824 96.671 0 27.249 4.456 53.454 12.667 77.938 2.36-6.062 5.098-11.807 8.153-17.258z" fill="#8e5323" data-original="#8e5323" style="" class=""/><path d="m13.144 234.515c-1.41 10.628-2.146 21.468-2.146 32.482 0 27.249 4.456 53.454 12.667 77.938 2.36-6.061 5.098-11.806 8.153-17.258-11.959-22.416 9.311-50.904 23.209-77.083-25.317 12.267-37.407-6.083-41.883-16.079z" fill="#794720" data-original="#794720" style="" class=""/><path d="m362.571 480.995c-11.125 1.063-23.75-1.813-29.75-17.563-11.73-30.791-9.053-107.118-14.53-149.767-5.593 7.413-11.956 14.781-18.896 22.025-.603 43.247-11.141 101.737-1.234 127.742 6 15.75 18.625 19.625 29.75 18.563 9.312-.889 17.756 3.465 21.46 11.567 7.97-3.288 15.736-6.972 23.258-11.051-3.085-1.282-6.508-1.855-10.058-1.516z" fill="#8e5323" data-original="#8e5323" style="" class=""/><path d="m294.564 410.618c9.362-16.409 21.156-17.048 28.779-15.151-1.574-28.989-2.234-59.854-5.052-81.801-5.593 7.413-11.956 14.781-18.896 22.025-.321 23.055-3.465 50.439-4.831 74.927z" fill="#794720" data-original="#794720" style="" class=""/><path d="m446.228 132.983c2.789-1.261 5.864-1.718 8.899-1.324 2.44.317 5.32.626 8.51.489-28.06-19.989 1.488-43.409-13.476-61.716-6.383-7.809-8.947-15.277-9.746-21.387-2.428-4.978-5.311-11.371-10.754-20.113-9.716-15.605-34.864-23.581-53.899-27.502-15.913-3.278-32.467-.877-46.827 6.722-27.945 14.788-73.238 47.374-90.349 108.834-3.478 12.491-12.065 22.944-23.633 28.8-19.355 9.797-47.511 28.259-55.791 55.646-10.904 36.063-106.196 60.885-136.664 139.918 16.048 50.442 47.985 93.792 89.934 124.18 7.146-8.949 17.318-17.451 31.729-22.597 20.661-7.379 62.373-30.129 102.403-59.789 4.704 24.932 4.89 52.202 4.535 66.913-.144 5.977 2.002 11.812 6.12 16.146 8.188 8.619 12.034 21.674 13.841 32.036.922 5.288 3.9 9.774 8.028 12.684 25.3-2.365 49.479-8.582 71.952-18.051-3.858-7.714-12.084-12.742-21.13-11.878-11.125 1.063-23.75-1.813-29.75-17.563-9.907-26.005.631-84.495 1.234-127.742 17.929-18.716 32.075-38.255 38.766-57.258 25-71 3.75-104.25 24.667-133.333 8.314-11.561 33.5-16.25 51.75-10.25 12.879 4.235 24.138.627 29.651-1.865z" fill="#a26330" data-original="#a26330" style="" class=""/><path d="m301.395 335.691c.675-.705 1.341-1.411 2.005-2.118.054-8.322-.275-16.057-1.239-22.807-1.313-9.189-2.051-16.86-2.404-23.236-.143-2.59-.101-5.176.117-7.738-12.22 7.572-31.977 23.135-28.372 42.974 10.74 59.101-17.588 160.52 33.648 149.467-1.938-2.347-3.634-5.242-4.989-8.8-9.907-26.005.631-84.495 1.234-127.742z" fill="#b5733c" data-original="#b5733c" style="" class=""/><path d="m212.739 334.983c-87.738-21.275-59.311-116.641-54.272-131.576-13.694 35.017-106.06 60.361-135.969 137.943 16.048 50.442 47.985 93.792 89.934 124.18 7.146-8.949 17.318-17.451 31.729-22.597 14.822-5.294 40.48-18.5 68.578-36.492z" fill="#8e5323" data-original="#8e5323" style="" class=""/><path d="m421.365 116.391c-1.244 2.465-.254 5.472 2.212 6.716l20.977 10.584c.599-.24 1.169-.479 1.674-.708 2.789-1.261 5.864-1.718 8.899-1.324 2.44.317 5.32.626 8.51.489-.044-.031-.084-.063-.127-.094l-35.429-17.876c-2.462-1.241-5.473-.253-6.716 2.213z" fill="#794720" data-original="#794720" style="" class=""/><path d="m467.161 69.433c-21.456-6.897-22.367-11.456-29.043-25.129-.029 6.742 1.89 16.155 10.043 26.129 14.972 18.316-14.614 41.751 13.518 61.746 8.472.084 19.542-2.556 30.482-17.246 17.5-23.5 3-36.5-25-45.5z" fill="#b5733c" data-original="#b5733c" style="" class=""/><path d="m467.161 69.433c-21.456-6.897-22.367-11.456-29.043-25.129-.029 6.742 1.89 16.155 10.043 26.129 3.477 4.254 4.549 8.785 4.501 13.484s9.095 19.466 30.885 9.9c6.068-2.664 10.792-4.123 14.454-4.846-4.166-8.437-15.458-14.594-30.84-19.538z" fill="#e29c6d" data-original="#e29c6d" style="" class=""/><path d="m495.739 83.597c-2.491-2.844-6.88-3.095-9.57-.439-2.527 2.495-4.138 5.97-2.623 10.658 1.77 5.478 6.038 9.217 11.121 11.63 2.197 1.043 4.8-.128 5.45-2.472 2.114-7.612.36-13.968-4.378-19.377z" fill="#633a1c" data-original="#633a1c" style="" class=""/><g><path d="m411.162 54.382c0-.943.167-1.845.458-2.689-1.34 1.375-3.466 3.13-6.473 4.392-.792.332-.694 1.486.148 1.657 2.463.502 5.82 1.391 8.75 2.887-1.762-1.509-2.883-3.745-2.883-6.247z" fill="#a0612d" data-original="#a0612d" style=""/></g><ellipse cx="419.246" cy="54.382" fill="#45304c" rx="8.226" ry="8.226" transform="matrix(.707 -.707 .707 .707 84.341 312.38)" data-original="#45304c" style=""/><path d="m425.847 49.487c-.538-.283-1.141-.459-1.792-.459-2.138 0-3.871 1.733-3.871 3.871s1.733 3.871 3.871 3.871c1.479 0 2.749-.839 3.401-2.059.004-.11.017-.218.017-.329-.001-1.836-.61-3.526-1.626-4.895z" fill="#876d93" data-original="#876d93" style=""/><path d="m246.569 383.14c-2.346-12.434-5.816-24.287-10.908-33.707-1.983-3.668-3.866-7.402-5.621-11.182-3.117-6.713-11.901-8.33-17.3-3.268-11.413 10.701-31.814 25.192-61.602 29.45l12.237 70.154c22.315-10.909 53.223-29.239 83.19-51.443z" fill="#ff40d8" data-original="#cc8652" style="" class=""/><path d="m219.613 475.185c-15.769 0-44.68 11.905-67.999 5.873-5.601-1.449-8.245-7.869-5.285-12.84l.001-.002c.754-1.266 1.673-2.42 2.692-3.484 32.18-33.621 31.759-95.827-1.557-125.373-26.35-23.368-60.119-16.766-76.098-11.658-2.721.87-2.606 4.744.152 5.49 16.789 4.539 50.396 18.102 50.396 53.946 0 31.971-20.927 46.469-39.466 52.786 41.138 41.285 96.911 67.965 158.878 71.626 1.031-9.116-6.573-36.364-21.714-36.364z" fill="#8e5323" data-original="#8e5323" style="" class=""/><path d="m352.661 144.433c-35.475 2.857-46.226 36.322-36.5 64.667 6.9 20.108.575 33.42-6.048 41.103-8.866 10.287-13.105 23.768-12.356 37.327.353 6.377 1.091 14.047 2.404 23.236 1.046 7.321 1.349 15.791 1.222 24.922l.012.003c17.929-18.716 32.075-38.255 38.766-57.258 24.908-70.738 3.912-104.003 24.442-133.011-3.775-.937-7.758-1.326-11.942-.989z" fill="#ff40d8" data-original="#cc8652" style="" class=""/><path d="m364.603 145.422c-3.775-.937-7.758-1.326-11.942-.99-35.475 2.857-46.226 36.322-36.5 64.667 5.878 17.129 2.157 29.324-3.167 37.311 0 .002 4.988 25.428 32.696 14.324 16.02-58.813.176-88.839 18.913-115.312z" fill="#e29c6d" data-original="#e29c6d" style="" class=""/><path d="m338.661 34.822c-11.452 3.817-21.303 11.359-27.918 21.456-16.386 25.011-39.712 74.559-3.582 116.489 27.103 31.453 55.448 20.861 73.903 7.201 12.077-8.939 15.114-25.7 7.072-38.391-23.124-36.493-30.21-74.628-32.371-95.687-.854-8.32-9.171-13.713-17.104-11.068z" fill="#b87443" data-original="#b87443" style=""/><path d="m338.661 34.822c-11.452 3.817-21.303 11.359-27.918 21.456-16.386 25.011-39.712 74.559-3.582 116.489 27.103 31.453 55.448 20.861 73.903 7.201 12.077-8.939 15.114-25.7 7.072-38.391-23.124-36.493-30.21-74.628-32.371-95.687-.854-8.32-9.171-13.713-17.104-11.068z" fill="#ff40d8" data-original="#cc8652" style="" class=""/><path d="m47.452 138.382c12.882 17.483 39.357 42.981 79.218 31.945 48.209-13.348 123.876-100.472 103.448-146.97-77.242 8.112-143.786 52.111-182.666 115.025z" fill="#ffdd40" data-original="#ffdd40" style="" class=""/><path d="m482.896 174.439c-33.626 3.752-91.459 17.244-99.893 65.564-10.73 61.47-58.659 197.486 24.075 219.879 57.182-44.851 93.925-114.574 93.925-192.883 0-32.756-6.444-64.001-18.107-92.56z" fill="#ffdd40" data-original="#ffdd40" style="" class=""/><path d="m364.241 189.563c-39.682-28.383 7.075-72.537-25.564-83.734-24.099-8.267-23.827-38.409-20.742-58.321-2.686 2.644-5.101 5.578-7.192 8.769-16.386 25.011-39.712 74.559-3.582 116.489 19.812 22.993 40.288 23.515 57.08 16.797z" fill="#b5733c" data-original="#b5733c" style="" class=""/><path d="m219.613 475.185c-5.684 0-13.081 1.548-21.303 3.244-4.726 5.533-10.658 15.614-3.236 25.909 14.918 3.817 30.38 6.274 46.252 7.212 1.032-9.117-6.572-36.365-21.713-36.365z" fill="#a26330" data-original="#a26330" style="" class=""/><path d="m496.378 90.688c0 1.853-1.502 3.354-3.354 3.354s-3.354-1.502-3.354-3.354 1.502-3.354 3.354-3.354c1.852-.001 3.354 1.501 3.354 3.354z" fill="#794720" data-original="#794720" style="" class=""/><ellipse cx="423.463" cy="316.655" fill="#000000" rx="8.905" ry="8.905" transform="matrix(.16 -.987 .987 .16 43.231 684.099)" data-original="#fcf6de" style="" class=""/><ellipse cx="419.246" cy="373.829" fill="#16130a" rx="15.951" ry="15.951" transform="matrix(.189 -.982 .982 .189 -26.931 715.065)" data-original="#fff2bd" style="" class=""/><ellipse cx="155.403" cy="98.182" fill="#16130a" rx="15.951" ry="15.951" transform="matrix(.379 -.925 .925 .379 5.65 204.782)" data-original="#fff2bd" style="" class=""/><path d="m110.424 205.074c0 7.374-5.978 13.352-13.352 13.352s-13.351-5.978-13.351-13.352 5.978-13.351 13.351-13.351c7.375 0 13.352 5.977 13.352 13.351z" fill="#ffdd40" data-original="#ffdd40" style="" class=""/></g></g></svg>
