<svg id="Layer_1" height="512" viewBox="0 0 512 512" width="512" xmlns="http://www.w3.org/2000/svg" data-name="Layer 1"><path d="m274.44 153.57a.975.975 0 0 0 -1.12-.19l-74.18 11.89a37.147 37.147 0 0 0 -20.41 10.42l-41.79 41.79 56.6 16.66.34.34 80.71-80.76z" fill="#ccd3df"/><path d="m358.29 237.42-80.73 80.74.15.15 16.66 56.6 41.79-41.79a37.147 37.147 0 0 0 10.42-20.41l11.89-74.17a.989.989 0 0 0 -.18-1.12z" fill="#ccd3df"/><path d="m479.95 31.9c-49.37-13.72-95.61 11.75-117.17 33.31l-117.24 117.59.02.02 83.67 83.67 117.41-117.42c21.56-21.56 47.03-67.8 33.31-117.17z" fill="#3090fc"/><path d="m329.23 266.49-31.37 31.36-83.67-83.66-.01-.01c9.67-9.68 20.32-20.34 31.36-31.38l.02.02z" fill="#fb6771"/><path d="m214.19 214.19-.01-.01-42.38 42.4 83.67 83.66 42.39-42.39z" fill="#3090fc"/><path d="m181.25 266.03 64.57 64.57-.09.09-25.33 25.34-64.58-64.58 25.34-25.33z" fill="#fb6771"/><path d="m382.78 85.21c19.1-19.1 57.553-41.254 100.4-36.538a105.853 105.853 0 0 0 -3.23-16.772c-49.37-13.72-95.61 11.75-117.17 33.31l-117.24 117.59.02.02 19.991 19.991-.011-.011z" fill="#2a88dd"/><path d="m214.19 214.19-.01-.01-42.38 42.4 20.001 19.999 42.379-42.399.01.01z" fill="#2a88dd"/><path d="m245.56 182.82-.02-.02c-11.04 11.04-21.69 21.7-31.36 31.38l.01.01 19.991 19.989c9.67-9.68 20.319-20.339 31.359-31.379z" fill="#dd5f6b"/><path d="m201.25 286.03-20-20-.09.09-25.34 25.33 20 20 25.34-25.33z" fill="#dd5f6b"/><path d="m420.44 91.41a33.787 33.787 0 0 1 0 47.79l-17.51 17.51a33.793 33.793 0 0 0 -48-47.58l17.72-17.72a33.787 33.787 0 0 1 47.79 0z" fill="#8dfff9"/><path d="m402.73 109.13a33.8 33.8 0 0 1 .2 47.58c-.06.07-.13.14-.2.21l-21.16 21.15-47.79-47.79 21.15-21.15a33.8 33.8 0 0 1 47.8 0z" fill="#6addc7"/><path d="m332.181 130.942h29.868v67.585h-29.868z" fill="#8dfff9" transform="matrix(.707 -.707 .707 .707 -14.818 293.697)"/><g fill="#d4e1f4"><path d="m136.8 380.752a6 6 0 0 1 -4.242-10.243l6.059-6.059a6 6 0 1 1 8.485 8.486l-6.063 6.064a5.982 5.982 0 0 1 -4.239 1.752z"/><path d="m86.329 431.823a6 6 0 0 1 -4.242-10.242l32.979-32.98a6 6 0 1 1 8.485 8.485l-32.98 32.98a5.982 5.982 0 0 1 -4.242 1.757z"/><path d="m36.645 481.508a6 6 0 0 1 -4.245-10.242l10.173-10.173a6 6 0 0 1 8.485 8.485l-10.171 10.173a5.982 5.982 0 0 1 -4.242 1.757z"/><path d="m65.168 452.984a6 6 0 0 1 -4.242-10.243l2.392-2.392a6 6 0 1 1 8.485 8.486l-2.393 2.393a5.985 5.985 0 0 1 -4.242 1.756z"/><path d="m96.405 370.214a6 6 0 0 1 -4.243-10.242l37.158-37.158a6 6 0 0 1 8.485 8.485l-37.158 37.158a5.98 5.98 0 0 1 -4.242 1.757z"/><path d="m77.782 389.44a6 6 0 0 1 -4.243-10.24l1.134-1.135a6 6 0 1 1 8.486 8.484l-1.134 1.134a5.979 5.979 0 0 1 -4.243 1.757z"/><path d="m43.688 423.534a6 6 0 0 1 -4.243-10.242l15.325-15.325a6 6 0 0 1 8.486 8.485l-15.324 15.325a5.986 5.986 0 0 1 -4.244 1.757z"/><path d="m95.819 319.871a6 6 0 0 1 -4.243-10.243l22.23-22.231a6 6 0 0 1 8.486 8.486l-22.23 22.23a5.981 5.981 0 0 1 -4.243 1.758z"/><path d="m52.316 363.976a6 6 0 0 1 -4.242-10.243l26.014-26.014a6 6 0 0 1 8.484 8.486l-26.013 26.013a5.979 5.979 0 0 1 -4.243 1.758z"/><path d="m28.175 388.118a6 6 0 0 1 -4.242-10.243l5.373-5.373a6 6 0 1 1 8.484 8.485l-5.373 5.373a5.979 5.979 0 0 1 -4.242 1.758z"/><path d="m172.214 396.266a6 6 0 0 1 -4.242-10.243l12.279-12.279a6 6 0 1 1 8.484 8.485l-12.279 12.279a5.979 5.979 0 0 1 -4.242 1.758z"/><path d="m128.712 440.371a6 6 0 0 1 -4.242-10.243l21.038-21.038a6 6 0 1 1 8.484 8.486l-21.038 21.037a5.979 5.979 0 0 1 -4.242 1.758z"/><path d="m94.618 474.464a6 6 0 0 1 -4.242-10.242l15.324-15.322a6 6 0 1 1 8.485 8.485l-15.325 15.322a5.982 5.982 0 0 1 -4.242 1.757z"/><path d="m177.775 441.634a6 6 0 0 1 -4.242-10.243l42.134-42.134a6 6 0 0 1 8.484 8.486l-42.133 42.133a5.979 5.979 0 0 1 -4.243 1.758z"/><path d="m154.177 465.835a6 6 0 0 1 -4.242-10.242l6.11-6.11a6 6 0 1 1 8.484 8.485l-6.11 6.11a5.978 5.978 0 0 1 -4.242 1.757z"/><path d="m130.035 489.978a6 6 0 0 1 -4.243-10.243l5.373-5.373a6 6 0 0 1 8.486 8.485l-5.373 5.374a5.986 5.986 0 0 1 -4.243 1.757z"/></g><path d="m265.522 135.855a6 6 0 0 1 -4.242-10.242l62.2-62.2a6 6 0 1 1 8.485 8.485l-62.2 62.2a5.978 5.978 0 0 1 -4.243 1.757z" fill="#ccd3df"/><path d="m344.183 57.2a6 6 0 0 1 -4.243-10.242l4.127-4.127a6 6 0 0 1 8.485 8.485l-4.127 4.127a5.982 5.982 0 0 1 -4.242 1.757z" fill="#ccd3df"/></svg>