<?xml version="1.0" encoding="iso-8859-1"?>
<!-- Generator: Adobe Illustrator 19.0.0, SVG Export Plug-In . SVG Version: 6.00 Build 0)  -->
<svg version="1.1" id="Capa_1" xmlns="http://www.w3.org/2000/svg" xmlns:xlink="http://www.w3.org/1999/xlink" x="0px" y="0px"
	 viewBox="0 0 512 512" style="enable-background:new 0 0 512 512;" xml:space="preserve">
<g>
	<g>
		<path d="M472,360.972v-98.029c0-27.59-11.782-53.977-32.324-72.394c-3.901-3.498-9.839-3.391-13.612,0.242l-0.276,0.267
			C406.857,209.287,396,234.815,396,261.095v46.047l-22-15.411v-81.596c0-84.24-42.01-162.181-112.375-208.494
			c-3.334-2.193-7.689-2.171-11.025,0.019C180.094,47.958,138,125.955,138,210.303v81.428l-22,15.411v-46.047
			c0-26.28-10.857-51.808-29.787-70.038l-0.276-0.266c-3.775-3.634-9.711-3.739-13.612-0.242C51.782,208.966,40,235.353,40,262.943
			v98.029c-25.216,21.396-40,52.971-40,86.375v14.647c0,5.523,4.478,10,10,10h30v30c0,5.523,4.478,10,10,10h56
			c5.522,0,10-4.477,10-10v-30h86v30c0,5.523,4.478,10,10,10h88c5.522,0,10-4.477,10-10v-30h86v30c0,5.523,4.478,10,10,10h56
			c5.522,0,10-4.477,10-10v-30h30c5.522,0,10-4.477,10-10v-14.647C512,413.943,497.216,382.368,472,360.972z M78.769,212.481
			c8.287,10.259,13.842,22.544,16.097,35.514H61.482C64.074,234.896,70.014,222.631,78.769,212.481z M60,267.995h36v53.157
			l-36,25.217V267.995z M96,491.995H60v-20h36V491.995z M138,451.994H20v-4.647c0-30.395,14.862-58.951,39.757-76.389L138,316.15
			V451.994z M433.231,212.481c8.755,10.15,14.695,22.415,17.286,35.514h-33.383C419.39,235.024,424.944,222.74,433.231,212.481z
			 M416,267.995h36v78.374l-36-25.217V267.995z M290,491.995h-24v0v-112.53c0-5.523-4.478-10-10-10c-5.522,0-10,4.477-10,10v112.529
			h-24V314.257h68V491.995z M222.354,294.257c2.119-30.273,13.836-58.653,33.691-81.591c19.822,22.947,31.513,51.329,33.609,81.591
			H222.354z M354,451.995h-44V304.153c0-42.752-16.639-82.956-46.877-113.23c-3.903-3.902-10.232-3.905-14.138-0.004
			C218.687,221.183,202,261.433,202,304.257v147.738h-44V210.303c0-75.378,36.549-145.245,98.12-188.229
			c33.555,23.484,59.64,54.987,76.42,91.003h-82.874c-5.522,0-10,4.477-10,10s4.478,10,10,10h91.067
			c8.66,24.368,13.267,50.365,13.267,77.059V451.995z M452,491.995h-36v-20h36V491.995z M492,451.995H374V316.15l78.243,54.808
			C477.138,388.396,492,416.953,492,447.347V451.995z"/>
	</g>
</g>
<g>
	<g>
		<path d="M219.069,116.005c-1.859-1.86-4.439-2.93-7.069-2.93s-5.21,1.07-7.07,2.93c-1.86,1.86-2.93,4.44-2.93,7.07
			s1.069,5.21,2.93,7.07c1.86,1.87,4.44,2.93,7.07,2.93s5.21-1.06,7.069-2.93c1.86-1.86,2.931-4.44,2.931-7.07
			S220.93,117.865,219.069,116.005z"/>
	</g>
</g>
<g>
	<g>
		<path d="M263.069,337.425c-1.859-1.861-4.439-2.93-7.069-2.93c-2.641,0-5.21,1.07-7.07,2.93s-2.93,4.44-2.93,7.07
			s1.069,5.21,2.93,7.07c1.861,1.86,4.44,2.93,7.07,2.93s5.21-1.07,7.069-2.93c1.86-1.86,2.931-4.44,2.931-7.07
			S264.93,339.285,263.069,337.425z"/>
	</g>
</g>
<g>
</g>
<g>
</g>
<g>
</g>
<g>
</g>
<g>
</g>
<g>
</g>
<g>
</g>
<g>
</g>
<g>
</g>
<g>
</g>
<g>
</g>
<g>
</g>
<g>
</g>
<g>
</g>
<g>
</g>
</svg>
