<svg id="Capa_1" enable-background="new 0 0 496.313 496.313" height="512" viewBox="0 0 496.313 496.313" width="512" xmlns="http://www.w3.org/2000/svg"><g><g fill="#fd8087"><path d="m408.867 178.292-45.47-37.28-36.229 43.191 3.346 146.281 32.882 16.158h34.81c9.29 0 16.82-7.53 16.82-16.81v-138.54c.001-5.04-2.259-9.81-6.159-13z"/><path d="m132.917 141.012-45.47 37.28c-3.9 3.19-6.16 7.96-6.16 13v138.54c0 9.28 7.53 16.81 16.82 16.81h34.81l45.478-21.416v-178.788z"/><path d="m255.587 1.072c-2.429-.715-4.93-1.07-7.43-1.07s-5 .36-7.43 1.07c-16.65 4.89-30.69 14.98-40.58 28.19-6.05 8.08-10.54 17.33-13.11 27.28l19.589 23.071h92.284l10.367-23.071c-6.763-26.186-26.827-47.567-53.69-55.47z"/></g><path d="m234.48 58.496c2.57-9.95 7.06-19.2 13.11-27.28 6.854-9.154 15.703-16.806 26.03-22.271-5.56-3.317-11.592-5.986-18.017-7.875-2.43-.71-4.93-1.07-7.43-1.07s-5 .36-7.43 1.07c-16.65 4.89-30.69 14.98-40.58 28.19-6.05 8.08-10.54 17.33-13.11 27.28l19.589 23.071h45.766z" fill="#fe646f"/><path d="m363.397 141.012v205.63h-230.48v-205.63l51.63-42.32 32.14-23.95h63.67l31.41 23.95z" fill="#e5e1e5"/><g><path d="m365.877 330.732v42.85c0 3.86-3.13 6.98-6.98 6.98h-221.48c-3.85 0-6.98-3.12-6.98-6.98v-42.85c0-1.67.6-3.28 1.68-4.55l52.43-61.16v-188.88c0-6.73.86-13.31 2.49-19.6h122.24c1.63 6.29 2.49 12.87 2.49 19.6v188.88l52.43 61.16c1.08 1.27 1.68 2.88 1.68 4.55z" fill="#f9f7f8"/><path d="m256.179 391.125h-17.046c-3.724 0-6.742-3.019-6.742-6.742v-114.031c0-3.724 3.019-6.742 6.742-6.742h17.046c3.724 0 6.742 3.019 6.742 6.742v114.031c.001 3.724-3.018 6.742-6.742 6.742z" fill="#e5e1e5"/><path d="m326.441 340.667h-17.045c-10.887 0-19.743 8.856-19.743 19.742v20.153h56.531v-20.153c0-10.886-8.856-19.742-19.743-19.742z" fill="#efedef"/><path d="m309.396 404.642h17.046c3.724 0 6.742-3.019 6.742-6.742v-37.491c0-3.724-3.019-6.742-6.742-6.742h-17.046c-3.724 0-6.742 3.019-6.742 6.742v37.491c-.001 3.724 3.018 6.742 6.742 6.742z" fill="#e5e1e5"/><path d="m252.914 78.599c-5.492-.552-10.813-.134-15.821 1.093-2.331.571-4.588-1.15-4.588-3.55 0-6.73.86-13.31 2.49-19.6h-47.958c-1.63 6.29-2.49 12.87-2.49 19.6v188.88l-52.43 61.16c-1.08 1.27-1.68 2.88-1.68 4.55v42.85c0 3.855 3.125 6.98 6.98 6.98h69.243v-20.153c0-10.942-8.902-19.805-19.859-19.742-4.662.027-8.406-3.861-8.406-8.523v-1.412c0-1.67.6-3.28 1.68-4.55l42.297-49.34c6.539-7.627 10.133-17.342 10.133-27.389v-75.607c0-2.395 2.249-4.121 4.575-3.551 3.551.871 7.26 1.335 11.077 1.335 26.823 0 48.43-22.762 46.518-49.985-1.578-22.454-19.365-40.796-41.761-43.046z" fill="#efedef"/><circle cx="248.157" cy="124.995" fill="#99e6fc" r="36.635"/><path d="m235.336 124.995c0-16.063 10.358-29.708 24.744-34.651-3.734-1.283-7.753-1.984-11.923-1.984-20.233 0-36.635 16.402-36.635 36.635s16.402 36.635 36.635 36.635c4.17 0 8.201-.705 11.936-1.988-14.386-4.944-24.757-18.584-24.757-34.647z" fill="#62dbfb"/><g fill="#fee97d"><path d="m191.189 435.84v4.243c0 8.522 5.18 16.188 13.086 19.367 11.629 4.676 19.248 15.952 19.248 28.487v.002c0 4.625-3.75 8.375-8.375 8.374l-136.158-.009c-4.625 0-8.374-3.749-8.374-8.374v-1.443c0-15.879 12.872-28.751 28.751-28.751h41.238c10.358 0 18.756-8.397 18.756-18.756v-3.139c0-2.455 1.99-4.444 4.444-4.444h22.94c2.455-.001 4.444 1.988 4.444 4.443z"/><path d="m425.697 487.927v-1.441c0-15.879-12.872-28.751-28.751-28.751h-41.238c-10.358 0-18.756-8.397-18.756-18.756v-2.288c0-2.925-2.371-5.295-5.295-5.295h-21.237c-2.925 0-5.295 2.371-5.295 5.295v3.392c0 8.522-5.18 16.188-13.086 19.367-11.629 4.676-19.248 15.952-19.248 28.487 0 4.626 3.751 8.377 8.377 8.377l136.155-.009c4.624-.001 8.374-3.752 8.374-8.378z"/></g></g><path d="m186.918 404.642h-17.046c-3.724 0-6.742-3.019-6.742-6.742v-37.491c0-3.724 3.019-6.742 6.742-6.742h17.046c3.724 0 6.742 3.019 6.742 6.742v37.491c0 3.724-3.019 6.742-6.742 6.742z" fill="#e5e1e5"/></g></svg>